<svg xmlns="http://www.w3.org/2000/svg" width="24" height="24" fill="currentColor" viewBox="0 0 24 24">
  <path fill="currentColor" d="m2.975 16.3-1.45 4.95a.936.936 0 0 0 .25 1 .936.936 0 0 0 1 .25l4.95-1.45a10.23 10.23 0 0 0 2.1.712c.717.159 1.45.238 2.2.238a9.738 9.738 0 0 0 3.9-.788 10.098 10.098 0 0 0 3.175-2.137c.9-.9 1.612-1.958 2.137-3.175a9.738 9.738 0 0 0 .788-3.9 9.738 9.738 0 0 0-.787-3.9A10.099 10.099 0 0 0 19.1 4.925c-.9-.9-1.958-1.612-3.175-2.137a9.738 9.738 0 0 0-3.9-.788 9.738 9.738 0 0 0-3.9.788A10.099 10.099 0 0 0 4.95 4.925c-.9.9-1.613 1.958-2.138 3.175a9.738 9.738 0 0 0-.787 3.9 10.179 10.179 0 0 0 .95 4.3Z"/>
</svg>
