<?xml version="1.0" encoding="utf-8"?>
<!-- Generator: Adobe Illustrator 22.1.0, SVG Export Plug-In . SVG Version: 6.00 Build 0)  -->
<svg version="1.1" id="Layer_1" xmlns="http://www.w3.org/2000/svg" xmlns:xlink="http://www.w3.org/1999/xlink" x="0px" y="0px"
	 viewBox="0 0 512 512" style="enable-background:new 0 0 512 512;" xml:space="preserve">
<style type="text/css">
	.st0{display:none;}
</style>
<path d="M448,0H64C28.7,0,0,28.7,0,64v288c0,35.3,28.7,64,64,64h96v84c0,7.1,5.8,12,12,12c2.4,0,4.9-0.7,7.1-2.4L304,416h144
	c35.3,0,64-28.7,64-64V64C512,28.7,483.3,0,448,0z M464,352c0,8.8-7.2,16-16,16H288l-12.8,9.6L208,428v-60H64c-8.8,0-16-7.2-16-16
	V64c0-8.8,7.2-16,16-16h384c8.8,0,16,7.2,16,16V352z"/>
<path class="st0" d="M371.1,269.5l-21-16.3c8.4-13.4,13.2-29,13.2-45.4c0-29.1-14.6-56-38.9-72c-3.4-2.2-8-1.3-10.2,2.1
	c-2.2,3.4-1.3,8,2.1,10.2c20.2,13.3,32.3,35.6,32.3,59.6c0,13-3.6,25.5-10.1,36.3l-11.6-9c4.6-8.2,7.2-17.5,7.2-27.3
	c0-19.2-9.8-37.2-26.2-47.6c-3.4-2.2-7.9-1.2-10.1,2.3c-2.2,3.4-1.2,7.9,2.3,10.1c12.1,7.7,19.4,21.1,19.4,35.3
	c0,6.5-1.5,12.7-4.3,18.3l-12.1-9.3c1-2.9,1.8-5.8,1.8-8.9c0-9.7-5.3-18.7-14-23.4c-3.5-1.9-8-0.7-9.9,2.9c-1.9,3.5-0.7,8,2.9,9.9
	c3.6,2,5.8,5.5,6.2,9.5L265.7,188v-31.3c0-6.5-7.9-9.8-12.5-5.2L238,166.7l-46.3-35.8c-2.1-1.7-5.2-1.3-6.8,0.9l-6,7.7
	c-1.7,2.1-1.3,5.2,0.9,6.8l179.4,138.7c2.1,1.7,5.2,1.3,6.8-0.9l6-7.7C373.6,274.3,373.2,271.2,371.1,269.5z M187.6,186v43.9
	c0,4,3.3,7.3,7.3,7.3H226l27.1,27.1c4.6,4.6,12.5,1.4,12.5-5.2v-21.8l-74.5-57.6C189.1,181.1,187.6,183.3,187.6,186z"/>
<path d="M296.4,113.5l-44.3,44.3h-50.8c-6.6,0-12,5.3-12,12v71.7c0,6.6,5.3,12,12,12h50.8l44.3,44.3c7.5,7.5,20.4,2.2,20.4-8.5V122
	C316.8,111.3,303.8,106,296.4,113.5z"/>
</svg>
