<svg xmlns="http://www.w3.org/2000/svg" width="24" height="24" fill="currentColor" viewBox="0 0 24 24">
  <path fill="currentColor" d="M4 18c-.55 0-1.02-.196-1.413-.587A1.926 1.926 0 0 1 2 16V5c0-.55.196-1.02.587-1.413A1.926 1.926 0 0 1 4 3h16c.55 0 1.02.196 1.413.587.39.393.587.863.587 1.413v11c0 .55-.196 1.02-.587 1.413A1.926 1.926 0 0 1 20 18H4Zm0-2h16V5H4v11Zm-2 5a.967.967 0 0 1-.712-.288A.968.968 0 0 1 1 20c0-.283.096-.52.288-.712A.967.967 0 0 1 2 19h20c.283 0 .52.096.712.288.192.191.288.429.288.712s-.096.52-.288.712A.968.968 0 0 1 22 21H2Z"/>
</svg>
