<svg xmlns="http://www.w3.org/2000/svg" width="24" height="24" fill="currentColor" viewBox="0 0 24 24">
  <path fill="currentColor" d="M7 21c-.55 0-1.02-.196-1.412-.587A1.926 1.926 0 0 1 5 19V6a.968.968 0 0 1-.713-.287A.968.968 0 0 1 4 5c0-.283.096-.52.287-.713A.968.968 0 0 1 5 4h4a.97.97 0 0 1 .287-.712A.968.968 0 0 1 10 3h4a.97.97 0 0 1 .713.288A.968.968 0 0 1 15 4h4a.97.97 0 0 1 .712.287c.192.192.288.43.288.713s-.096.52-.288.713A.968.968 0 0 1 19 6v13c0 .55-.196 1.02-.587 1.413A1.926 1.926 0 0 1 17 21H7Zm2-5c0 .283.096.52.287.712.192.192.43.288.713.288s.52-.096.713-.288A.968.968 0 0 0 11 16V9a.967.967 0 0 0-.287-.713A.968.968 0 0 0 10 8a.968.968 0 0 0-.713.287A.968.968 0 0 0 9 9v7Zm4 0c0 .283.096.52.287.712.192.192.43.288.713.288s.52-.096.713-.288A.968.968 0 0 0 15 16V9a.967.967 0 0 0-.287-.713A.968.968 0 0 0 14 8a.968.968 0 0 0-.713.287A.967.967 0 0 0 13 9v7Z"/>
</svg>
