<svg xmlns="http://www.w3.org/2000/svg" width="24" height="24" fill="currentColor" viewBox="0 0 24 24">
  <path fill="currentColor" d="M12 17a.97.97 0 0 0 .713-.288A.968.968 0 0 0 13 16v-4a.968.968 0 0 0-.287-.713A.968.968 0 0 0 12 11a.968.968 0 0 0-.713.287A.968.968 0 0 0 11 12v4c0 .283.096.52.287.712.192.192.43.288.713.288Zm0-8c.283 0 .52-.096.713-.287A.967.967 0 0 0 13 8a.967.967 0 0 0-.287-.713A.968.968 0 0 0 12 7a.968.968 0 0 0-.713.287A.967.967 0 0 0 11 8c0 .283.096.52.287.713.192.191.43.287.713.287Zm0 13a9.738 9.738 0 0 1-3.9-.788 10.099 10.099 0 0 1-3.175-2.137c-.9-.9-1.612-1.958-2.137-3.175A9.738 9.738 0 0 1 2 12a9.74 9.74 0 0 1 .788-3.9 10.099 10.099 0 0 1 2.137-3.175c.9-.9 1.958-1.612 3.175-2.137A9.738 9.738 0 0 1 12 2a9.74 9.74 0 0 1 3.9.788 10.098 10.098 0 0 1 3.175 2.137c.9.9 1.613 1.958 2.137 3.175A9.738 9.738 0 0 1 22 12a9.738 9.738 0 0 1-.788 3.9 10.098 10.098 0 0 1-2.137 3.175c-.9.9-1.958 1.613-3.175 2.137A9.738 9.738 0 0 1 12 22Z"/>
</svg>
