<?xml version="1.0" encoding="utf-8"?>
<!-- Generator: Adobe Illustrator 22.1.0, SVG Export Plug-In . SVG Version: 6.00 Build 0)  -->
<svg version="1.1" id="Layer_1" xmlns="http://www.w3.org/2000/svg" xmlns:xlink="http://www.w3.org/1999/xlink" x="0px" y="0px"
	 viewBox="0 0 640 512" style="enable-background:new 0 0 640 512;" xml:space="preserve">
<style type="text/css">
	.st0{display:none;}
</style>
<path d="M224,288c79.5,0,144-64.5,144-144S303.5,0,224,0S80,64.5,80,144S144.5,288,224,288z M224,48c52.9,0,96,43.1,96,96
	s-43.1,96-96,96s-96-43.1-96-96S171.1,48,224,48z M48,464v-25.6c0-47.6,38.8-86.4,86.4-86.4c14.6,0,38.3,16,89.6,16
	c43,0,70.4-12.1,80.7-14.6c1.3-17.1,4.9-33.6,10.4-49.2C283.7,303.8,272,320,224,320c-47.1,0-60.8-16-89.6-16
	C60.2,304,0,364.2,0,438.4V464c0,26.5,21.5,48,48,48h321.4c-15.6-13.7-29-29.9-39.5-48H48z M497.8,227.6
	c-78.5,0-142.2,63.7-142.2,142.2S419.2,512,497.8,512S640,448.3,640,369.8S576.3,227.6,497.8,227.6z M572.4,295.2
	c37.5,37.5,40.1,94.9,11.9,135.1l-147-147C477.5,255,534.9,257.7,572.4,295.2z M423.2,444.4c-37.5-37.5-40.1-94.9-11.9-135.1
	l147,147C518,484.6,460.7,481.9,423.2,444.4z"/>
<path class="st0" d="M497.8,224c-78.5,0-142.2,63.7-142.2,142.2s63.7,142.2,142.2,142.2S640,444.8,640,366.2S576.3,224,497.8,224z
	 M572.4,291.6c37.5,37.5,40.1,94.9,11.9,135.1l-147-147C477.5,251.4,534.9,254.1,572.4,291.6z M423.2,440.8
	c-37.5-37.5-40.1-94.9-11.9-135.1l147,147C518,481,460.7,478.3,423.2,440.8z"/>
</svg>
