<svg xmlns="http://www.w3.org/2000/svg" width="24" height="24" fill="currentColor" viewBox="0 0 24 24">
  <path fill="currentColor" stroke="currentColor" stroke-width=".025" d="m5.84 17.108.008.01.01-.008a10.422 10.422 0 0 1 2.846-1.536A9.725 9.725 0 0 1 12 15.012c1.149 0 2.247.188 3.296.562a10.42 10.42 0 0 1 2.846 1.536l.01.007.008-.009a7.742 7.742 0 0 0 1.364-2.329A7.85 7.85 0 0 0 20.012 12c0-2.22-.78-4.11-2.34-5.671C16.11 4.768 14.22 3.988 12 3.988c-2.22 0-4.11.78-5.671 2.34C4.768 7.89 3.988 9.78 3.988 12c0 .985.162 1.911.488 2.78.325.867.78 1.644 1.364 2.328Zm6.16-4.12c-.98 0-1.806-.337-2.479-1.01-.672-.672-1.009-1.498-1.009-2.478 0-.98.337-1.806 1.01-2.479.672-.672 1.498-1.008 2.478-1.008.98 0 1.806.336 2.479 1.008.672.673 1.009 1.499 1.009 2.479s-.337 1.806-1.01 2.479c-.672.672-1.498 1.009-2.478 1.009Zm0 9a9.725 9.725 0 0 1-3.895-.787 10.087 10.087 0 0 1-3.171-2.135 10.087 10.087 0 0 1-2.135-3.171A9.725 9.725 0 0 1 2.013 12c0-1.382.262-2.68.786-3.895a10.086 10.086 0 0 1 2.135-3.171 10.086 10.086 0 0 1 3.171-2.135A9.725 9.725 0 0 1 12 2.013c1.382 0 2.68.262 3.895.786a10.087 10.087 0 0 1 3.171 2.135c.899.899 1.61 1.956 2.135 3.171A9.725 9.725 0 0 1 21.988 12a9.73 9.73 0 0 1-.787 3.895 10.087 10.087 0 0 1-2.135 3.171 10.087 10.087 0 0 1-3.171 2.135 9.725 9.725 0 0 1-3.895.787Z"/>
</svg>
