<svg xmlns="http://www.w3.org/2000/svg" width="24" height="24" fill="currentColor" viewBox="0 0 24 24">
  <path fill="currentColor" d="m19.3 16.5-3.2-3.2c.133-.283.233-.57.3-.863.067-.291.1-.604.1-.937 0-1.25-.438-2.312-1.313-3.187C14.313 7.438 13.25 7 12 7a4.2 4.2 0 0 0-.938.1 4.24 4.24 0 0 0-.862.3L7.65 4.85A11.08 11.08 0 0 1 12 4c2.383 0 4.525.63 6.425 1.888 1.9 1.258 3.325 2.895 4.275 4.912.05.083.083.188.1.313s.025.254.025.387a1.972 1.972 0 0 1-.125.7 11.49 11.49 0 0 1-1.438 2.375A10.467 10.467 0 0 1 19.3 16.5Zm-.2 5.4-3.5-3.45c-.583.183-1.17.32-1.762.413-.592.091-1.205.137-1.838.137-2.383 0-4.525-.63-6.425-1.887-1.9-1.259-3.325-2.896-4.275-4.913a.812.812 0 0 1-.1-.313 2.93 2.93 0 0 1 0-.762.796.796 0 0 1 .1-.3c.35-.75.767-1.442 1.25-2.075A13.291 13.291 0 0 1 4.15 7L2.075 4.9a.933.933 0 0 1-.275-.687c0-.275.1-.513.3-.713a.948.948 0 0 1 .7-.275.95.95 0 0 1 .7.275l17 17c.183.183.28.413.288.688a.93.93 0 0 1-.288.712.948.948 0 0 1-.7.275.948.948 0 0 1-.7-.275ZM12 16a4.9 4.9 0 0 0 .512-.025c.159-.017.33-.05.513-.1l-5.4-5.4c-.05.183-.083.354-.1.513a4.81 4.81 0 0 0-.025.512c0 1.25.438 2.313 1.313 3.188C9.687 15.562 10.75 16 12 16Zm2.65-4.15-3-3c.95-.15 1.725.117 2.325.8.6.683.825 1.417.675 2.2Z"/>
</svg>
