<svg width="28" height="28" viewBox="0 0 28 28" fill="none" xmlns="http://www.w3.org/2000/svg">
<path d="M9.1458 8.89337C9.20888 8.4655 8.90205 8.06909 8.46046 8.00797C8.01887 7.94684 7.60976 8.24415 7.54667 8.67202L7.00822 12.3241C6.94514 12.752 7.25197 13.1484 7.69356 13.2095C8.13515 13.2707 8.54426 12.9734 8.60735 12.5455L9.1458 8.89337Z" fill="currentColor"/>
<path d="M17.2226 15.6759C17.2857 15.248 16.9789 14.8516 16.5373 14.7905C16.0957 14.7293 15.6866 15.0266 15.6235 15.4545L15.085 19.1066C15.0219 19.5345 15.3288 19.9309 15.7704 19.992C16.212 20.0532 16.6211 19.7559 16.6842 19.328L17.2226 15.6759Z" fill="currentColor"/>
<path d="M12.2122 8.00574C12.6551 8.05756 12.9707 8.44741 12.9173 8.87651L12.9026 8.99329C12.8931 9.06788 12.8794 9.17541 12.8622 9.30757C12.828 9.57178 12.7801 9.93492 12.7256 10.3304C12.6179 11.1115 12.4801 12.0499 12.369 12.5883C12.2815 13.0121 11.856 13.287 11.4186 13.2022C10.9812 13.1174 10.6975 12.7052 10.785 12.2813C10.8841 11.801 11.0155 10.9133 11.1245 10.1231C11.1783 9.73284 11.2256 9.37397 11.2595 9.11259C11.2764 8.98195 11.2899 8.87579 11.2992 8.80239L11.3135 8.68927C11.367 8.26017 11.7694 7.95393 12.2122 8.00574Z" fill="currentColor"/>
<path d="M20.9918 15.6759C21.0549 15.248 20.748 14.8516 20.3064 14.7905C19.8649 14.7293 19.4557 15.0266 19.3927 15.4545L18.8542 19.1066C18.7911 19.5345 19.098 19.9309 19.5395 19.992C19.9811 20.0532 20.3902 19.7559 20.4533 19.328L20.9918 15.6759Z" fill="currentColor"/>
</svg>
