<svg xmlns="http://www.w3.org/2000/svg" enable-background="new 0 0 24 24" viewBox="0 0 24 24" fill="black" width="18px" height="18px"><g><rect fill="none" height="24" width="24" y="0"/></g><g><g><g><path d="M20,5H4C2.9,5,2.01,5.9,2.01,7L2,17c0,1.1,0.9,2,2,2h16c1.1,0,2-0.9,2-2V7C22,5.9,21.1,5,20,5z M11,8h2v2h-2V8z M11,11h2 v2h-2V11z M8,8h2v2H8V8z M8,11h2v2H8V11z M7,13H5v-2h2V13z M7,10H5V8h2V10z M15,17H9c-0.55,0-1-0.45-1-1l0,0c0-0.55,0.45-1,1-1h6 c0.55,0,1,0.45,1,1l0,0C16,16.55,15.55,17,15,17z M16,13h-2v-2h2V13z M16,10h-2V8h2V10z M19,13h-2v-2h2V13z M19,10h-2V8h2V10z"/></g></g></g></svg> 
