<svg width="24" height="24" viewBox="0 0 24 24" fill="none" xmlns="http://www.w3.org/2000/svg">
<path d="M15.4846 16.3684C15.4542 16.3888 15.4242 16.4103 15.3948 16.4329C13.3349 18.0103 10.4597 17.9609 8.45528 16.3135C6.45085 14.6662 5.84542 11.8552 6.99397 9.52884C8.14254 7.20246 10.7424 5.97384 13.2691 6.56348C15.7957 7.1531 17.5831 9.40556 17.5833 12C17.5833 12 17.5833 12 17.5833 12V12.7332C17.5833 12.8998 17.3742 13.1831 17.0417 13.1831C16.7094 13.1831 16.5 12.8997 16.5 12.7329L16.5 11.9999L16.5 11.9988L16.5 11.996L16.5 11.9956L15.75 11.9967C15.7482 9.92713 14.07 8.25 12 8.25C9.92893 8.25 8.25 9.92893 8.25 12C8.25 14.0711 9.92893 15.75 12 15.75C12.9106 15.75 13.7454 15.4254 14.395 14.8857L15.4846 16.3684ZM15.4846 16.3684C15.1184 16.2155 14.7759 16.0107 14.4693 15.7624L15.4846 16.3684ZM21.0833 11.9998V11.9998C21.0831 7.77882 18.175 4.11432 14.0645 3.15506C9.95394 2.1958 5.72424 4.19458 3.85563 7.9794C1.98701 11.7642 2.97202 16.3375 6.23302 19.0175C9.49402 21.6976 14.1715 21.778 17.5227 19.2117C18.2901 18.6241 18.4358 17.5256 17.8482 16.7583C17.8115 16.7104 17.7729 16.665 17.7324 16.622C19.5385 16.3018 21.0833 14.7552 21.0833 12.7332V11.9998ZM12 11C12.5523 11 13 11.4477 13 12C13 12.5523 12.5523 13 12 13C11.4477 13 11 12.5523 11 12C11 11.4477 11.4477 11 12 11ZM1.75 12C1.75 6.33908 6.33908 1.75 12 1.75C17.6609 1.75 22.25 6.33908 22.25 12C22.25 17.6609 17.6609 22.25 12 22.25C6.33908 22.25 1.75 17.6609 1.75 12Z" fill="currentColor" stroke="currentColor" stroke-width="1.5" stroke-linecap="round"/>
</svg>
