<svg width="24" height="24" fill="red" xmlns="http://www.w3.org/2000/svg"><path d="M19 3H5a2 2 0 0 0-2 2v17l3.467-2.6a2 2 0 0 1 1.2-.4H19a2 2 0 0 0 2-2V5a2 2 0 0 0-2-2Z" fill="#000"/><path d="m6.467 19.4-.6-.8.6.8ZM3 22H2a1 1 0 0 0 1.6.8L3 22ZM5 4h14V2H5v2ZM4 19V5H2v14h2ZM20 5v5h2V5h-2ZM5.867 18.6 2.4 21.2l1.2 1.6 3.467-2.6-1.2-1.6ZM4 22v-3H2v3h2Zm3.667-2H9v-2H7.667v2ZM9 20h10v-2H9v2Zm13-3v-7h-2v7h2Zm-3 3a3 3 0 0 0 3-3h-2a1 1 0 0 1-1 1v2Zm-11.933.2a1 1 0 0 1 .6-.2v-2a3 3 0 0 0-1.8.6l1.2 1.6ZM19 4a1 1 0 0 1 1 1h2a3 3 0 0 0-3-3v2ZM5 2a3 3 0 0 0-3 3h2a1 1 0 0 1 1-1V2Z" fill="red"/><path d="M6 9h12M6 13h6" stroke="#fff" stroke-width="2" stroke-linecap="round"/></svg>

