
<svg viewBox="0 0 32 32" version="1.1" xmlns="http://www.w3.org/2000/svg" xmlns:xlink="http://www.w3.org/1999/xlink">
    <g id="Page-1" stroke="none" stroke-width="1" fill="none" fill-rule="evenodd">
        <g id="Group-2" transform="translate(16.000000, 16.000000) rotate(-270.000000) translate(-16.000000, -16.000000) translate(0.000000, 0.000000)" fill="#9EA9BA" fill-rule="nonzero">
            <path d="M16,30 C23.7319865,30 30,23.7319865 30,16 C30,8.2680135 23.7319865,2 16,2 C8.2680135,2 2,8.2680135 2,16 C2,23.7319865 8.2680135,30 16,30 Z M16,32 C7.163444,32 1.42108547e-14,24.836556 1.42108547e-14,16 C1.42108547e-14,7.163444 7.163444,-4.26325641e-14 16,-4.26325641e-14 C24.836556,-4.26325641e-14 32,7.163444 32,16 C32,24.836556 24.836556,32 16,32 Z M8.38806712,7.12866556 L14.0176666,10.4517425 C12.3564733,11.0055887 11.0644341,12.2978964 10.510703,13.9594349 L7.09602789,8.32866558 C6.91145086,7.95943481 7.00373938,7.49789634 7.28060493,7.22097326 C7.55747047,6.94405018 8.01891305,6.94405018 8.38806712,7.12866556 Z M19.9203922,16.2307691 C19.9203922,18.2615384 18.259199,19.9230768 16.2288516,19.9230768 C14.1985042,19.9230768 12.537311,18.2615384 12.537311,16.2307691 C12.537311,14.1999998 14.1985042,12.5384613 16.2288516,12.5384613 C18.259199,12.5384613 19.9203922,14.1999998 19.9203922,16.2307691 Z M21.5815855,18.076923 L24.9039721,23.6153846 C25.0885491,23.9846154 24.9962606,24.4461538 24.7193951,24.7230769 C24.534818,24.9076923 24.350241,25 24.0733755,25 C23.8887984,25 23.7965099,25 23.6119329,24.9076923 L18.0746219,21.5846153 C19.7358152,21.0307692 21.0278544,19.7384615 21.5815855,18.076923 Z" id="Combined-Shape"></path>
        </g>
    </g>
</svg>
