<svg width="22" height="20" viewBox="0 0 22 20" fill="none" xmlns="http://www.w3.org/2000/svg">
<path fill-rule="evenodd" clip-rule="evenodd" d="M2.09811 6.875C3.43856 2.87651 7.28032 0 11.7961 0C17.4215 0 22 4.47997 22 10C22 15.52 17.4215 20 11.7961 20C6.98192 20 2.93711 16.712 1.86902 12.3012C1.79305 12.0824 1.84921 11.8399 2.01378 11.6759C2.17835 11.512 2.42262 11.4554 2.6434 11.5299C2.86417 11.6044 3.02294 11.797 3.05264 12.0265C3.98924 15.8944 7.54078 18.7879 11.7961 18.7879C16.77 18.7879 20.7782 14.8562 20.7782 10C20.7782 5.14382 16.77 1.21212 11.7961 1.21212C7.77823 1.21212 4.38944 3.78821 3.234 7.32954L5.00942 6.42994C5.20495 6.32106 5.44488 6.32719 5.63451 6.44591C5.82413 6.56463 5.93297 6.77686 5.91805 6.99881C5.90314 7.22077 5.76687 7.41678 5.56304 7.50948L2.57537 9.02463C2.28221 9.17262 1.92357 9.06379 1.76402 8.77842L0.0840575 5.80494C-0.020621 5.62801 -0.0279801 5.41055 0.0645009 5.22706C0.156982 5.04356 0.336749 4.91893 0.54223 4.89585C0.791214 4.86572 1.03346 4.98964 1.15313 5.20833L2.09811 6.875ZM10.6662 5.7882C10.6594 5.47416 10.8956 5.207 11.2103 5.17268C11.3852 5.15356 11.56 5.2102 11.6898 5.32808C11.8196 5.44597 11.8918 5.61366 11.888 5.7882V10.3431L14.7134 12.5874C14.977 12.7966 15.0197 13.1782 14.8089 13.4397C14.598 13.7012 14.2134 13.7436 13.9498 13.5344L10.8953 11.1102C10.7504 10.9951 10.6661 10.8208 10.6662 10.6367V5.7882Z" fill="#45474A"/>
</svg>
