<?xml version="1.0" encoding="utf-8"?>
<!DOCTYPE svg PUBLIC "-//W3C//DTD SVG 1.1//EN" "http://www.w3.org/Graphics/SVG/1.1/DTD/svg11.dtd">
<svg version="1.1" id="Layer_1" xmlns="http://www.w3.org/2000/svg" xmlns:xlink="http://www.w3.org/1999/xlink" x="0px" y="0px"
	 width="80px" height="80px" viewBox="0 0 80 80" enable-background="new 0 0 80 80" xml:space="preserve">
<path fill="#9FA9BA" d="M68.029,43.705c-1.03-0.291-1.706,0.298-0.756,1.11c0.401,0.343,0.909,0.64,0.837,1.248
	c-0.067,0.556-0.539,1.044-1.044,1.24c-0.04,0.017-0.078,0.03-0.117,0.04c-0.018,0.006-0.045,0.014-0.05,0.013
	c0.013-0.005-0.079,0.022-0.069,0.016c-0.105,0.023-0.214,0.041-0.327,0.052c-0.453,0.047-0.96,0.003-1.514-0.134
	c-2.06-0.508-4.015-1.502-5.829-2.581c-3.341-1.986-7.159-4.511-8.761-8.212c-0.729-1.686-0.825-2.994-0.825-2.994
	s-0.458,0.049-0.68,0.08c-1.809,0.252-3.028,1.277-3.028,1.277c0.72-0.926,1.812-1.628,2.835-2.044
	c0.317-0.13,0.642-0.266,0.965-0.414c0.428-0.199,0.842-0.419,1.214-0.682c0.331-0.232,0.625-0.53,0.87-0.87
	c0.525-0.722,0.834-1.63,0.815-2.483c-0.025-1.189-0.541-1.949-1.066-2.968c-0.261-0.504-0.43-1.062-0.692-1.553
	c-1.188-6.152-5.571-14.058-10.808-14.14c-5.236,0.082-9.618,7.987-10.809,14.14c-0.262,0.491-0.433,1.05-0.691,1.554
	c-0.526,1.019-1.042,1.777-1.066,2.968c-0.019,0.854,0.289,1.762,0.814,2.483c0.247,0.339,0.54,0.638,0.872,0.87
	c0.372,0.263,0.787,0.482,1.214,0.682c0.322,0.148,0.647,0.284,0.965,0.414c1.023,0.416,2.116,1.117,2.833,2.044
	c0,0-1.217-1.025-3.027-1.277c-0.222-0.032-0.68-0.08-0.68-0.08s-0.096,1.309-0.825,2.994c-1.602,3.701-5.419,6.226-8.762,8.212
	c-1.814,1.079-3.768,2.073-5.829,2.581c-0.552,0.137-1.061,0.181-1.513,0.134c-0.113-0.012-0.223-0.029-0.329-0.052
	c0.011,0.006-0.08-0.021-0.067-0.016c-0.006,0-0.033-0.008-0.05-0.013c-0.039-0.01-0.079-0.024-0.118-0.04
	c-0.504-0.197-0.977-0.685-1.044-1.239c-0.073-0.609,0.436-0.907,0.837-1.249c0.953-0.812,0.276-1.401-0.755-1.111
	c-1.356,0.386-2.206,1.636-1.91,3.048c0.065,0.323,0.184,0.639,0.35,0.941c-0.01,0.042-0.018,0.084-0.018,0.129
	c0,0.212,0.122,0.393,0.296,0.481c-0.007,0.037-0.011,0.071-0.011,0.109c0,0.301,0.244,0.544,0.544,0.544
	c0,0.3,0.243,0.546,0.544,0.546c0.128,0,0.245-0.046,0.337-0.122c0.059,0.236,0.272,0.413,0.527,0.413
	c0.159,0,0.301-0.069,0.4-0.178c0.004-0.002,0.011-0.001,0.017,0.001c0.078,0.206,0.274,0.357,0.509,0.357
	c0.182,0,0.342-0.092,0.441-0.229c0.016,0.002,0.032,0.002,0.047,0.004c0.038,0.262,0.262,0.465,0.536,0.465
	c0.266,0,0.487-0.192,0.534-0.445c0.087,0.184,0.273,0.312,0.49,0.312c0.266,0,0.487-0.191,0.534-0.445
	c0.082,0.197,0.275,0.337,0.502,0.337c0.296,0,0.536-0.237,0.543-0.533c0.094,0.162,0.268,0.273,0.469,0.273
	c0.285,0,0.517-0.222,0.54-0.502c0.098,0.146,0.264,0.242,0.452,0.242c0.272,0,0.495-0.2,0.536-0.461
	c0.058,0.021,0.121,0.037,0.187,0.037c0.271,0,0.495-0.201,0.536-0.46c0.059,0.021,0.121,0.034,0.188,0.034
	c0.271,0,0.494-0.199,0.535-0.46c0.059,0.023,0.121,0.037,0.188,0.037c0.271,0,0.494-0.2,0.536-0.46
	c0.058,0.021,0.121,0.034,0.187,0.034c0.268,0,0.49-0.194,0.535-0.45c0.003-0.001,0.008-0.003,0.012-0.006
	c0.056,0.02,0.114,0.032,0.176,0.032c0.259,0,0.473-0.182,0.529-0.423c0.015-0.008,0.029-0.017,0.044-0.024
	c0.047,0.014,0.098,0.023,0.15,0.023c0.263,0,0.483-0.188,0.533-0.436c0.008-0.006,0.018-0.012,0.026-0.016
	c0.052,0.016,0.106,0.026,0.164,0.026c0.271,0,0.495-0.199,0.536-0.459c0.059,0.021,0.121,0.035,0.187,0.035
	c0.271,0,0.495-0.199,0.536-0.46c0.06,0.021,0.122,0.035,0.188,0.035c0.272,0,0.495-0.198,0.536-0.458
	c0.055,0.02,0.115,0.033,0.177,0.033c-0.3,0.413-0.581,0.829-0.842,1.251c-0.78,1.257-1.395,2.524-1.949,3.744
	c-0.554,1.219-1.05,2.395-1.562,3.5c-0.129,0.276-0.256,0.546-0.389,0.817l-0.401,0.806c-0.266,0.524-0.535,1.021-0.819,1.481
	c-0.565,0.92-1.196,1.691-1.901,2.196c-0.352,0.254-0.719,0.441-1.104,0.566c-0.383,0.123-0.796,0.19-1.174,0.188
	c-0.767,0.004-1.472-0.264-1.934-0.688c-0.468-0.42-0.7-0.985-0.723-1.6c-0.011-0.299,0.028-0.643,0.097-0.887
	c0.078-0.277,0.203-0.556,0.346-0.791c0.143-0.234,0.306-0.43,0.46-0.561c0.156-0.134,0.289-0.2,0.41-0.227
	c0.125-0.031,0.253-0.017,0.426,0.035c0.086,0.016,0.2,0.089,0.294,0.195c0.192,0.218,0.295,0.51,0.332,0.729
	c0.039,0.227,0.024,0.403,0.006,0.551c-0.018,0.149-0.037,0.27,0.024,0.358c0.06,0.085,0.135,0.146,0.244,0.162
	c0.108,0.015,0.25-0.018,0.409-0.134c0.317-0.223,0.658-0.837,0.524-1.684c-0.034-0.21-0.097-0.434-0.21-0.67
	c-0.113-0.233-0.276-0.482-0.531-0.706c-0.131-0.114-0.271-0.215-0.466-0.305l-0.062-0.028l-0.019-0.011l-0.004-0.001
	c-0.032-0.013,0.037,0.016,0.027,0.012l-0.015-0.007c-0.038-0.017-0.075-0.034-0.115-0.049c-0.079-0.033-0.163-0.063-0.249-0.088
	c-0.348-0.104-0.775-0.124-1.181-0.026c-0.407,0.098-0.78,0.297-1.095,0.547c-0.317,0.248-0.586,0.545-0.823,0.876
	c-0.235,0.334-0.439,0.701-0.603,1.131c-0.081,0.206-0.153,0.468-0.196,0.687c-0.047,0.227-0.081,0.466-0.098,0.717
	c-0.018,0.284-0.01,0.59,0.03,0.9c-0.038,0.075-0.061,0.157-0.061,0.244c0,0.141,0.054,0.266,0.14,0.36
	c-0.085,0.097-0.14,0.223-0.14,0.361c0,0.188,0.094,0.352,0.237,0.449c-0.058,0.087-0.091,0.19-0.091,0.302
	c0,0.27,0.198,0.493,0.456,0.535c-0.016,0.05-0.026,0.103-0.026,0.157c0,0.302,0.243,0.546,0.544,0.546
	c0.049,0,0.096-0.009,0.142-0.021c-0.016,0.051-0.027,0.104-0.027,0.161c0,0.299,0.244,0.544,0.544,0.544
	c0.101,0,0.195-0.029,0.276-0.078c0.032,0.271,0.259,0.482,0.538,0.482c0.11,0,0.214-0.032,0.3-0.089
	c0.063,0.229,0.271,0.399,0.521,0.399c0.136,0,0.257-0.052,0.354-0.135c0.092,0.172,0.27,0.288,0.478,0.288
	c0.29,0,0.525-0.227,0.541-0.513c0.002,0,0.004,0,0.006,0c0.017,0.286,0.252,0.513,0.542,0.513c0.258,0,0.474-0.181,0.529-0.422
	c0.094,0.16,0.267,0.269,0.466,0.269c0.301,0,0.544-0.243,0.544-0.545c0-0.016-0.003-0.031-0.004-0.047
	c0.1,0.121,0.25,0.203,0.419,0.203c0.266,0,0.486-0.192,0.534-0.443c0.1,0.126,0.252,0.208,0.425,0.208
	c0.301,0,0.544-0.243,0.544-0.543c0-0.089-0.022-0.17-0.061-0.244c0.099,0.094,0.231,0.152,0.376,0.152
	c0.301,0,0.544-0.243,0.544-0.544c0-0.039-0.004-0.078-0.012-0.114c0.092,0.071,0.205,0.114,0.329,0.114
	c0.301,0,0.544-0.243,0.544-0.545c0-0.068-0.014-0.132-0.037-0.191c0.073,0.037,0.155,0.059,0.242,0.059
	c0.301,0,0.544-0.243,0.544-0.543c0-0.06-0.012-0.115-0.029-0.169c0.037,0.006,0.073,0.011,0.112,0.011
	c0.3,0,0.544-0.242,0.544-0.543c0-0.043-0.005-0.082-0.015-0.121c0.231-0.062,0.402-0.272,0.402-0.522
	c0-0.044-0.005-0.083-0.015-0.122c0.231-0.062,0.402-0.272,0.402-0.523c0-0.041-0.006-0.081-0.015-0.119
	c0.231-0.063,0.401-0.272,0.401-0.524c0-0.041-0.005-0.082-0.015-0.119c0.23-0.063,0.401-0.273,0.401-0.523
	c0-0.043-0.005-0.083-0.015-0.123c0.231-0.062,0.402-0.271,0.402-0.521c0-0.042-0.005-0.082-0.015-0.121
	c0.231-0.062,0.402-0.272,0.402-0.523c0-0.042-0.006-0.081-0.015-0.12c0.231-0.062,0.402-0.273,0.402-0.524
	c0-0.042-0.006-0.08-0.015-0.12c0.231-0.062,0.402-0.272,0.402-0.523c0-0.041-0.005-0.082-0.015-0.121
	c0.231-0.062,0.402-0.271,0.402-0.522c0-0.042-0.006-0.082-0.016-0.122c0.231-0.062,0.402-0.271,0.402-0.522
	c0-0.089-0.023-0.172-0.06-0.243c0.282-0.021,0.507-0.255,0.507-0.542c0-0.142-0.055-0.27-0.144-0.366
	c0.251-0.046,0.442-0.267,0.442-0.533c0-0.109-0.033-0.21-0.088-0.296c0.013,0,0.027,0.004,0.04,0.004
	c0.067,0,0.13-0.015,0.188-0.037c-0.117,1.049-0.112,2.094,0,3.085c0.138,1.23,0.422,2.374,0.749,3.432
	c0.328,1.058,0.694,2.034,1.046,2.961l0.268,0.7c0.085,0.213,0.166,0.425,0.241,0.634c0.151,0.419,0.282,0.828,0.389,1.229
	c0.214,0.8,0.328,1.562,0.318,2.257c-0.005,0.348-0.04,0.678-0.104,0.988c-0.032,0.155-0.072,0.307-0.117,0.452
	c-0.023,0.071-0.049,0.146-0.073,0.213c-0.024,0.063-0.048,0.123-0.077,0.186c-0.226,0.496-0.573,0.895-0.957,1.164
	c-0.384,0.271-0.796,0.412-1.168,0.449c-0.752,0.077-1.331-0.266-1.729-0.564c-0.4-0.304-0.657-0.527-0.854-0.437
	c-0.188,0.086-0.299,0.238-0.284,0.52c0.009,0.141,0.05,0.313,0.143,0.518c0.093,0.203,0.238,0.439,0.468,0.688
	c0.231,0.247,0.551,0.509,0.986,0.706c0.017,0.009,0.037,0.017,0.055,0.023c0.1,0.125,0.25,0.205,0.422,0.205
	c0.048,0,0.094-0.008,0.138-0.02c0.01,0.003,0.019,0.005,0.029,0.007c0.092,0.17,0.27,0.285,0.475,0.285
	c0.147,0,0.279-0.059,0.377-0.152c0.067,0.224,0.272,0.388,0.518,0.388c0.287,0,0.519-0.224,0.54-0.505
	c0.094,0.078,0.215,0.13,0.35,0.13c0.3,0,0.544-0.243,0.544-0.544c0-0.021-0.004-0.042-0.006-0.062
	c0.088,0.062,0.195,0.098,0.309,0.098c0.301,0,0.544-0.243,0.544-0.545c0-0.047-0.008-0.093-0.02-0.138
	c0.077,0.043,0.165,0.068,0.259,0.068c0.301,0,0.544-0.241,0.544-0.544c0-0.09-0.024-0.173-0.062-0.248
	c0.003,0,0.008,0.001,0.012,0.001c0.301,0,0.545-0.242,0.545-0.544c0-0.116-0.037-0.222-0.099-0.31
	c0.27-0.033,0.479-0.26,0.479-0.537c0-0.105-0.031-0.202-0.082-0.285c0.212-0.073,0.364-0.273,0.364-0.511
	c0-0.107-0.031-0.204-0.085-0.289c0.203-0.079,0.348-0.275,0.348-0.507c0-0.156-0.067-0.296-0.174-0.396
	c0.147-0.098,0.246-0.265,0.246-0.455c0-0.202-0.113-0.377-0.278-0.471c0.104-0.099,0.17-0.238,0.17-0.395
	c0-0.22-0.132-0.409-0.32-0.493c0.122-0.101,0.201-0.249,0.201-0.419c0-0.181-0.089-0.34-0.224-0.438
	c0.072-0.093,0.117-0.208,0.117-0.334c0-0.276-0.207-0.503-0.473-0.537c0.096-0.098,0.156-0.232,0.156-0.381
	c0-0.245-0.163-0.45-0.386-0.518c0.099-0.099,0.16-0.233,0.16-0.384c0-0.287-0.221-0.519-0.5-0.541
	c0.168-0.092,0.283-0.269,0.283-0.474c0-0.286-0.221-0.518-0.501-0.54c0.168-0.093,0.284-0.27,0.284-0.475
	c0-0.287-0.221-0.518-0.5-0.54c0.168-0.093,0.284-0.269,0.284-0.476c0-0.286-0.222-0.516-0.501-0.539
	c0.168-0.093,0.283-0.269,0.283-0.476c0-0.287-0.221-0.517-0.501-0.54c0.169-0.093,0.283-0.269,0.283-0.474
	c0-0.22-0.129-0.407-0.316-0.492c0.149-0.099,0.247-0.266,0.247-0.455c0-0.233-0.147-0.431-0.353-0.509
	c0.167-0.092,0.282-0.268,0.282-0.475c0-0.192-0.102-0.361-0.254-0.457c0.19-0.084,0.324-0.275,0.324-0.497
	c0-0.171-0.08-0.321-0.203-0.421c0.162-0.095,0.272-0.268,0.272-0.469c0-0.146-0.059-0.278-0.152-0.376
	c0.188-0.085,0.318-0.272,0.318-0.493c0-0.123-0.042-0.234-0.11-0.327l0.01-0.023c0.199-0.082,0.339-0.276,0.339-0.505
	c0-0.039-0.004-0.074-0.011-0.111c0.188-0.086,0.317-0.272,0.317-0.491c0-0.044-0.006-0.086-0.016-0.125
	c0.227-0.065,0.394-0.271,0.394-0.52c0-0.048-0.008-0.095-0.02-0.14c0.012-0.017,0.022-0.032,0.035-0.048
	c0.25-0.048,0.438-0.268,0.438-0.533c0-0.004-0.001-0.009-0.001-0.013c0.221-0.046,0.39-0.226,0.425-0.45
	c0.201-0.039,0.36-0.191,0.416-0.388c0.48-0.413,1.01-0.768,1.546-1.014c0.145-0.066,0.298-0.129,0.433-0.172
	c0.005,0.002,0.006,0.002,0.013,0.002h0.009l0.03-0.008l0.128-0.038c0,0,0.267-0.071,0.268-0.071
	c1.253-0.339,2.493-0.499,3.732-0.495c1.24-0.004,2.479,0.156,3.733,0.495l0.267,0.071l0.129,0.038l0.031,0.008h0.009
	c0.008,0,0.008,0,0.013-0.002c0.135,0.044,0.289,0.106,0.433,0.172c0.537,0.245,1.066,0.601,1.547,1.014
	c0.054,0.196,0.213,0.349,0.416,0.388c0.034,0.225,0.203,0.403,0.423,0.45c0,0.004,0,0.009,0,0.013c0,0.266,0.188,0.484,0.437,0.533
	c0.014,0.016,0.023,0.031,0.035,0.048c-0.012,0.045-0.02,0.092-0.02,0.14c0,0.248,0.166,0.454,0.392,0.52
	c-0.009,0.039-0.015,0.081-0.015,0.125c0,0.219,0.132,0.405,0.318,0.491c-0.009,0.038-0.014,0.073-0.014,0.111
	c0,0.229,0.143,0.422,0.34,0.505l0.011,0.023c-0.069,0.092-0.11,0.203-0.11,0.327c0,0.221,0.132,0.408,0.318,0.493
	c-0.095,0.098-0.153,0.23-0.153,0.376c0,0.201,0.111,0.374,0.273,0.469c-0.123,0.1-0.204,0.25-0.204,0.421
	c0,0.222,0.135,0.413,0.324,0.497c-0.151,0.096-0.252,0.266-0.252,0.457c0,0.206,0.114,0.383,0.281,0.475
	c-0.205,0.078-0.354,0.275-0.354,0.509c0,0.19,0.1,0.358,0.248,0.455c-0.186,0.085-0.317,0.272-0.317,0.492
	c0,0.204,0.116,0.381,0.284,0.474c-0.279,0.023-0.5,0.253-0.5,0.54c0,0.206,0.115,0.383,0.283,0.476
	c-0.28,0.022-0.501,0.253-0.501,0.539c0,0.206,0.114,0.383,0.282,0.476c-0.278,0.021-0.5,0.253-0.5,0.54
	c0,0.205,0.115,0.382,0.284,0.475c-0.28,0.022-0.502,0.254-0.502,0.54c0,0.204,0.115,0.382,0.283,0.474
	c-0.28,0.022-0.5,0.254-0.5,0.541c0,0.149,0.061,0.285,0.159,0.384c-0.223,0.068-0.387,0.272-0.387,0.518
	c0,0.148,0.061,0.283,0.156,0.381c-0.267,0.034-0.474,0.261-0.474,0.537c0,0.126,0.045,0.241,0.116,0.334
	c-0.135,0.099-0.224,0.258-0.224,0.438c0,0.17,0.08,0.318,0.202,0.419c-0.188,0.084-0.32,0.273-0.32,0.493
	c0,0.156,0.065,0.296,0.171,0.395c-0.166,0.094-0.277,0.268-0.277,0.471c0,0.19,0.097,0.358,0.244,0.455
	c-0.107,0.1-0.174,0.239-0.174,0.396c0,0.231,0.144,0.427,0.347,0.507c-0.053,0.084-0.084,0.182-0.084,0.289
	c0,0.236,0.153,0.438,0.363,0.511c-0.05,0.083-0.082,0.18-0.082,0.285c0,0.277,0.21,0.504,0.479,0.537
	c-0.061,0.088-0.097,0.193-0.097,0.31c0,0.301,0.242,0.544,0.544,0.544c0.003,0,0.008-0.001,0.012-0.001
	c-0.038,0.075-0.062,0.158-0.062,0.248c0,0.301,0.242,0.544,0.543,0.544c0.095,0,0.183-0.025,0.261-0.068
	c-0.012,0.045-0.02,0.091-0.02,0.138c0,0.302,0.243,0.545,0.544,0.545c0.114,0,0.222-0.036,0.31-0.098
	c-0.003,0.021-0.007,0.042-0.007,0.062c0,0.3,0.243,0.544,0.543,0.544c0.136,0,0.256-0.051,0.351-0.13
	c0.021,0.281,0.254,0.505,0.541,0.505c0.245,0,0.45-0.164,0.518-0.388c0.099,0.094,0.23,0.152,0.377,0.152
	c0.205,0,0.384-0.115,0.477-0.285c0.01-0.002,0.019-0.004,0.026-0.007c0.045,0.012,0.092,0.02,0.141,0.02
	c0.172,0,0.321-0.08,0.422-0.205c0.018-0.007,0.037-0.016,0.056-0.023c0.435-0.198,0.755-0.459,0.984-0.706
	c0.23-0.249,0.376-0.485,0.469-0.688c0.092-0.204,0.135-0.377,0.142-0.518c0.017-0.281-0.095-0.434-0.284-0.52
	c-0.195-0.091-0.451,0.133-0.852,0.437c-0.397,0.298-0.979,0.642-1.729,0.564c-0.373-0.037-0.786-0.178-1.17-0.449
	c-0.384-0.269-0.73-0.668-0.955-1.164c-0.028-0.062-0.055-0.122-0.078-0.186c-0.025-0.066-0.05-0.142-0.072-0.213
	c-0.047-0.146-0.086-0.297-0.118-0.452c-0.064-0.311-0.099-0.641-0.104-0.988c-0.011-0.695,0.104-1.457,0.318-2.257
	c0.107-0.399,0.238-0.81,0.389-1.229c0.077-0.207,0.155-0.421,0.24-0.634l0.268-0.7c0.353-0.927,0.72-1.903,1.046-2.961
	c0.327-1.058,0.61-2.201,0.75-3.432c0.112-0.991,0.117-2.036,0-3.085c0.059,0.022,0.121,0.037,0.188,0.037
	c0.014,0,0.026-0.004,0.041-0.004c-0.056,0.085-0.09,0.186-0.09,0.296c0,0.265,0.191,0.485,0.444,0.533
	c-0.09,0.097-0.145,0.225-0.145,0.366c0,0.287,0.224,0.521,0.507,0.542c-0.038,0.071-0.061,0.154-0.061,0.243
	c0,0.251,0.171,0.461,0.401,0.522c-0.009,0.04-0.015,0.08-0.015,0.122c0,0.251,0.17,0.46,0.402,0.522
	c-0.01,0.039-0.017,0.08-0.017,0.121c0,0.251,0.172,0.461,0.403,0.523c-0.01,0.04-0.016,0.078-0.016,0.12
	c0,0.251,0.171,0.462,0.402,0.524c-0.009,0.039-0.014,0.078-0.014,0.12c0,0.251,0.17,0.461,0.4,0.523
	c-0.008,0.039-0.015,0.079-0.015,0.121c0,0.25,0.172,0.459,0.401,0.521c-0.009,0.04-0.015,0.08-0.015,0.123
	c0,0.25,0.171,0.46,0.402,0.523c-0.01,0.037-0.017,0.078-0.017,0.119c0,0.252,0.173,0.461,0.403,0.524
	c-0.01,0.038-0.015,0.078-0.015,0.119c0,0.251,0.172,0.462,0.401,0.523c-0.01,0.039-0.015,0.078-0.015,0.122
	c0,0.25,0.171,0.46,0.401,0.522c-0.009,0.039-0.015,0.078-0.015,0.121c0,0.299,0.243,0.543,0.543,0.543
	c0.04,0,0.077-0.005,0.113-0.011c-0.018,0.053-0.03,0.109-0.03,0.169c0,0.299,0.245,0.543,0.544,0.543
	c0.087,0,0.171-0.021,0.243-0.059c-0.021,0.06-0.036,0.123-0.036,0.191c0,0.3,0.243,0.545,0.543,0.545
	c0.126,0,0.237-0.044,0.33-0.114c-0.008,0.036-0.013,0.075-0.013,0.114c0,0.3,0.243,0.544,0.544,0.544
	c0.145,0,0.278-0.059,0.376-0.152c-0.036,0.074-0.06,0.155-0.06,0.244c0,0.299,0.244,0.543,0.544,0.543
	c0.174,0,0.327-0.082,0.426-0.208c0.047,0.251,0.267,0.443,0.534,0.443c0.168,0,0.32-0.081,0.419-0.203
	c-0.001,0.016-0.006,0.031-0.006,0.047c0,0.302,0.245,0.545,0.545,0.545c0.199,0,0.373-0.109,0.466-0.269
	c0.058,0.241,0.272,0.422,0.53,0.422c0.29,0,0.526-0.227,0.542-0.513c0.002,0,0.004,0,0.006,0c0.016,0.286,0.252,0.513,0.542,0.513
	c0.205,0,0.385-0.116,0.476-0.288c0.098,0.082,0.219,0.135,0.354,0.135c0.248,0,0.457-0.171,0.522-0.399
	c0.085,0.057,0.188,0.089,0.3,0.089c0.278,0,0.507-0.21,0.536-0.482c0.081,0.049,0.176,0.078,0.278,0.078
	c0.299,0,0.542-0.244,0.542-0.544c0-0.058-0.01-0.109-0.025-0.161c0.046,0.014,0.093,0.021,0.142,0.021
	c0.299,0,0.544-0.243,0.544-0.546c0-0.055-0.012-0.107-0.025-0.157c0.257-0.042,0.455-0.265,0.455-0.535
	c0-0.111-0.034-0.215-0.094-0.302c0.145-0.098,0.239-0.262,0.239-0.449c0-0.139-0.055-0.265-0.142-0.361
	c0.087-0.095,0.142-0.221,0.142-0.36c0-0.087-0.023-0.169-0.061-0.244c0.041-0.311,0.047-0.616,0.029-0.903
	c-0.018-0.251-0.052-0.49-0.098-0.717c-0.044-0.219-0.115-0.48-0.197-0.687c-0.164-0.43-0.368-0.796-0.604-1.131
	c-0.234-0.331-0.504-0.628-0.822-0.876c-0.315-0.25-0.686-0.449-1.096-0.547c-0.404-0.099-0.832-0.076-1.181,0.026
	c-0.086,0.024-0.17,0.055-0.25,0.088c-0.04,0.015-0.076,0.032-0.114,0.049l-0.015,0.007c-0.006,0.003,0.016-0.006,0.028-0.011
	h-0.004l-0.02,0.011l-0.062,0.028c-0.195,0.09-0.334,0.19-0.466,0.305c-0.256,0.225-0.418,0.473-0.531,0.706
	c-0.111,0.235-0.176,0.46-0.21,0.67c-0.134,0.847,0.208,1.461,0.523,1.683c0.158,0.117,0.302,0.148,0.409,0.135
	c0.109-0.016,0.185-0.077,0.245-0.162c0.062-0.088,0.04-0.208,0.024-0.358c-0.019-0.147-0.035-0.324,0.007-0.551
	c0.036-0.22,0.138-0.512,0.329-0.729c0.095-0.106,0.208-0.18,0.295-0.195c0.173-0.053,0.301-0.066,0.427-0.035
	c0.12,0.026,0.252,0.093,0.409,0.227c0.153,0.13,0.317,0.326,0.461,0.561c0.142,0.234,0.267,0.514,0.345,0.791
	c0.07,0.243,0.108,0.588,0.097,0.887c-0.021,0.613-0.255,1.179-0.723,1.6c-0.462,0.424-1.166,0.691-1.934,0.687
	c-0.379,0.003-0.793-0.064-1.175-0.188c-0.385-0.125-0.752-0.313-1.104-0.566c-0.704-0.505-1.337-1.277-1.901-2.197
	c-0.284-0.459-0.553-0.955-0.818-1.48l-0.396-0.804c-0.132-0.271-0.26-0.542-0.389-0.818c-0.514-1.104-1.01-2.281-1.562-3.5
	c-0.555-1.22-1.17-2.486-1.95-3.744c-0.261-0.421-0.541-0.838-0.842-1.251c0.063,0,0.123-0.014,0.179-0.033
	c0.039,0.26,0.263,0.458,0.535,0.458c0.064,0,0.128-0.013,0.188-0.034c0.041,0.26,0.264,0.46,0.534,0.46
	c0.067,0,0.13-0.015,0.188-0.036c0.041,0.262,0.264,0.46,0.535,0.46c0.059,0,0.112-0.012,0.164-0.027
	c0.01,0.006,0.018,0.011,0.026,0.016c0.051,0.249,0.27,0.436,0.532,0.436c0.053,0,0.102-0.011,0.15-0.023
	c0.014,0.008,0.029,0.017,0.045,0.025c0.054,0.241,0.269,0.422,0.528,0.422c0.062,0,0.121-0.013,0.176-0.032
	c0.004,0.003,0.008,0.005,0.013,0.007c0.044,0.255,0.267,0.45,0.535,0.45c0.066,0,0.129-0.014,0.188-0.035
	c0.041,0.261,0.264,0.46,0.535,0.46c0.066,0,0.129-0.014,0.188-0.036c0.042,0.262,0.265,0.459,0.536,0.459
	c0.066,0,0.129-0.014,0.187-0.033c0.042,0.259,0.265,0.459,0.536,0.459c0.067,0,0.128-0.015,0.187-0.036
	c0.043,0.261,0.265,0.46,0.536,0.46c0.188,0,0.354-0.096,0.452-0.241c0.022,0.28,0.254,0.501,0.539,0.501
	c0.203,0,0.376-0.11,0.471-0.272c0.005,0.295,0.246,0.532,0.542,0.532c0.228,0,0.421-0.14,0.503-0.336
	c0.046,0.254,0.267,0.444,0.534,0.444c0.218,0,0.404-0.128,0.49-0.312c0.046,0.253,0.268,0.446,0.532,0.446
	c0.275,0,0.499-0.204,0.538-0.466c0.016-0.002,0.032-0.002,0.046-0.003c0.1,0.137,0.26,0.229,0.442,0.229
	c0.234,0,0.431-0.15,0.508-0.357c0.007-0.003,0.016-0.003,0.021-0.004c0.1,0.108,0.24,0.178,0.398,0.178
	c0.256,0,0.469-0.177,0.526-0.414c0.094,0.076,0.21,0.123,0.339,0.123c0.301,0,0.545-0.246,0.545-0.547
	c0.3,0,0.542-0.242,0.542-0.544c0-0.037-0.001-0.072-0.01-0.108c0.175-0.089,0.297-0.27,0.297-0.481c0-0.046-0.006-0.088-0.019-0.13
	c0.166-0.302,0.286-0.618,0.351-0.941C70.235,45.339,69.386,44.09,68.029,43.705z M27.924,46.462c0,0,1.244-5.065,5.438-6.642
	C33.361,39.821,30.105,41.837,27.924,46.462z M33.315,30.684c-1.542,0-2.792-1.25-2.792-2.792c0-1.541,1.25-2.791,2.792-2.791
	c1.542,0,3.052,2.135,3.052,3.676C36.367,30.318,34.856,30.684,33.315,30.684z M43.631,28.776c0-1.541,1.512-3.676,3.052-3.676
	c1.543,0,2.792,1.25,2.792,2.791c0,1.542-1.25,2.792-2.792,2.792C45.143,30.684,43.631,30.318,43.631,28.776z M46.637,39.821
	c4.194,1.576,5.438,6.641,5.438,6.641C49.893,41.837,46.637,39.821,46.637,39.821z"/>
</svg>
