<?xml version="1.0" encoding="utf-8"?>
<!DOCTYPE svg PUBLIC "-//W3C//DTD SVG 1.1//EN" "http://www.w3.org/Graphics/SVG/1.1/DTD/svg11.dtd">
<svg version="1.1" xmlns="http://www.w3.org/2000/svg" xmlns:xlink="http://www.w3.org/1999/xlink" x="0px" y="0px" viewBox="0 0 1000 1000" enable-background="new 0 0 1000 1000" xml:space="preserve">
<g><path d="M500.5,749.3c0,0-156.9,155.6-171.9,168.3s-38.3,9.7-38.3,9.7c-38.5,0-70.1-32-70.1-71.2V749.3H80.1c-38.5,0-70.1-32-70.1-71.2V143.6c0-39.1,31.5-71.2,70.1-71.2h839.9c38.5,0,70.1,32,70.1,71.2v534.5c0,39.1-31.5,71.2-70.1,71.2H500.5z M292.2,497.9c39,0,70.6-31.7,70.6-70.9c0-39.2-31.6-70.9-70.6-70.9c-39,0-70.6,31.7-70.6,70.9C221.7,466.2,253.3,497.9,292.2,497.9z M503.9,497.9c39,0,70.6-31.7,70.6-70.9c0-39.2-31.6-70.9-70.6-70.9c-39,0-70.6,31.7-70.6,70.9C433.3,466.2,464.9,497.9,503.9,497.9z M715.5,497.9c39,0,70.6-31.7,70.6-70.9c0-39.2-31.6-70.9-70.6-70.9c-39,0-70.6,31.7-70.6,70.9C645,466.2,676.6,497.9,715.5,497.9z"/></g>
</svg>
