<?xml version="1.0" encoding="UTF-8" standalone="no"?>
<svg
   xmlns:dc="http://purl.org/dc/elements/1.1/"
   xmlns:cc="http://creativecommons.org/ns#"
   xmlns:rdf="http://www.w3.org/1999/02/22-rdf-syntax-ns#"
   xmlns:svg="http://www.w3.org/2000/svg"
   xmlns="http://www.w3.org/2000/svg"
   xmlns:sodipodi="http://sodipodi.sourceforge.net/DTD/sodipodi-0.dtd"
   xmlns:inkscape="http://www.inkscape.org/namespaces/inkscape"
   height="45"
   viewBox="0 0 69 45"
   width="69"
   style="zoom: 8;"
   version="1.1"
   id="svg163"
   sodipodi:docname="math.svg"
   inkscape:version="0.92.2 5c3e80d, 2017-08-06">
  <metadata
     id="metadata169">
    <rdf:RDF>
      <cc:Work
         rdf:about="">
        <dc:format>image/svg+xml</dc:format>
        <dc:type
           rdf:resource="http://purl.org/dc/dcmitype/StillImage" />
      </cc:Work>
    </rdf:RDF>
  </metadata>
  <defs
     id="defs167" />
  <sodipodi:namedview
     pagecolor="#ffffff"
     bordercolor="#666666"
     borderopacity="1"
     objecttolerance="10"
     gridtolerance="10"
     guidetolerance="10"
     inkscape:pageopacity="0"
     inkscape:pageshadow="2"
     inkscape:window-width="1680"
     inkscape:window-height="1028"
     id="namedview165"
     showgrid="false"
     inkscape:zoom="12.806489"
     inkscape:cx="35.552369"
     inkscape:cy="18.637565"
     inkscape:window-x="0"
     inkscape:window-y="0"
     inkscape:window-maximized="1"
     inkscape:current-layer="svg163" />
  <path
     style="visibility:visible;fill:#d8d8d8;fill-rule:evenodd"
     d="M 6 0 C 2.6862915 0 0 2.6862915 0 6 L 0 39 C 0 42.313708 2.6862915 45 6 45 L 63 45 C 66.313709 45 69 42.313708 69 39 L 69 6 C 69 2.6862915 66.313709 0 63 0 L 6 0 z M 20.679688 5.8847656 C 21.426354 5.8847656 21.800781 6.2859375 21.800781 7.0859375 L 21.800781 10.285156 C 24.200781 10.551823 26.108151 11.21849 27.521484 12.285156 C 28.934818 13.351823 29.640625 14.658411 29.640625 16.205078 C 29.640625 16.898411 29.426667 17.484844 29 17.964844 C 28.573333 18.418177 28.040391 18.644531 27.400391 18.644531 C 26.867057 18.644531 26.414349 18.471667 26.041016 18.125 C 25.667682 17.778333 25.480469 17.364766 25.480469 16.884766 C 25.480469 16.351432 25.774661 15.898724 26.361328 15.525391 C 25.801328 13.818724 24.280781 12.952448 21.800781 12.925781 L 21.800781 21.884766 C 22.014115 21.938099 22.347448 22.018333 22.800781 22.125 C 24.880781 22.605 26.321094 23.045313 27.121094 23.445312 C 27.921094 23.845312 28.667995 24.49763 29.361328 25.404297 C 30.187995 26.49763 30.601562 27.791823 30.601562 29.285156 C 30.601562 30.69849 30.21474 32.017474 29.441406 33.244141 C 28.668073 34.444141 27.641328 35.339115 26.361328 35.925781 C 25.187995 36.485781 23.667448 36.93849 21.800781 37.285156 L 21.800781 40.685547 C 21.800781 41.37888 21.426354 41.724609 20.679688 41.724609 C 19.933021 41.724609 19.560547 41.37888 19.560547 40.685547 L 19.560547 37.285156 C 17.587214 37.151823 15.920547 36.804141 14.560547 36.244141 C 13.200547 35.657474 12.120313 34.832292 11.320312 33.765625 C 10.54698 32.698958 10.160156 31.524141 10.160156 30.244141 C 10.160156 29.150807 10.427603 28.272135 10.960938 27.605469 C 11.49427 26.938802 12.200078 26.605469 13.080078 26.605469 C 13.666745 26.605469 14.160547 26.805078 14.560547 27.205078 C 14.960547 27.578411 15.160156 28.057865 15.160156 28.644531 C 15.160156 29.791198 14.466745 30.404375 13.080078 30.484375 C 13.213411 31.737708 13.853333 32.737708 15 33.484375 C 16.173333 34.231042 17.69388 34.617865 19.560547 34.644531 L 19.560547 24.564453 L 18.960938 24.404297 C 16.800937 23.81763 15.33388 23.352526 14.560547 23.005859 C 13.600547 22.579193 12.853647 21.978411 12.320312 21.205078 C 11.70698 20.325078 11.400391 19.205703 11.400391 17.845703 C 11.400391 16.459036 11.787214 15.164844 12.560547 13.964844 C 13.33388 12.764844 14.33388 11.898568 15.560547 11.365234 C 16.600547 10.911901 17.93388 10.551823 19.560547 10.285156 L 19.560547 7.0859375 C 19.560547 6.2859375 19.933021 5.8847656 20.679688 5.8847656 z M 40.253906 11.330078 L 56.837891 11.330078 L 56.837891 13.875 L 44.195312 13.875 L 53.054688 23.328125 L 43.904297 33.400391 L 57.181641 33.400391 L 57.181641 35.931641 L 39.857422 35.931641 L 39.857422 33.966797 L 49.416016 23.40625 L 40.253906 13.664062 L 40.253906 11.330078 z M 19.560547 12.925781 C 18.067214 12.979115 16.840859 13.405078 15.880859 14.205078 C 14.947526 15.005078 14.480469 16.017474 14.480469 17.244141 C 14.480469 18.310807 14.801406 19.137943 15.441406 19.724609 C 16.081406 20.284609 17.213177 20.778411 18.839844 21.205078 C 18.973177 21.231745 19.21388 21.29763 19.560547 21.404297 L 19.560547 12.925781 z M 21.800781 25.044922 L 21.800781 34.644531 C 23.427448 34.617865 24.773177 34.138411 25.839844 33.205078 C 26.933177 32.271745 27.480469 31.09888 27.480469 29.685547 C 27.480469 28.37888 27.093647 27.37888 26.320312 26.685547 C 25.546979 25.992214 24.267135 25.484062 22.480469 25.164062 C 22.373802 25.137396 22.147448 25.098255 21.800781 25.044922 z "
     id="path158" />
  <g
     aria-label="∑"
     style="font-size:27px;font-family:AmericanTypewriter-Bold;text-anchor:middle;display:inline;visibility:hidden;fill:#000000;stroke:none;stroke-width:1px;text-rendering:geometricPrecision"
     id="text1" />
</svg>
