<svg width="35" height="32" viewBox="0 0 35 32" fill="none" xmlns="http://www.w3.org/2000/svg">
<path fill-rule="evenodd" clip-rule="evenodd" d="M24.9432 17.5037C24.0489 16.5873 23.1545 15.6708 22.2602 14.7544C20.8365 13.2955 19.4128 11.8366 17.9855 10.3741C17.6606 10.0411 17.3357 9.70822 17.0108 9.3753C17.0108 9.72692 17.0108 10.0823 17.0108 10.4339C17.9052 9.51744 18.7995 8.60098 19.6939 7.68453C21.1176 6.22567 22.5413 4.76682 23.9686 3.30423C24.2935 2.97131 24.6184 2.63839 24.9432 2.30547C25.2134 2.02866 25.2353 1.51994 24.9432 1.24687C24.6512 0.973802 24.1986 0.951358 23.9102 1.24687C23.0158 2.16333 22.1215 3.07979 21.2271 3.99625C19.8034 5.4551 18.3797 6.91395 16.9524 8.37654C16.6275 8.70946 16.3026 9.04238 15.9778 9.3753C15.7003 9.65959 15.6967 10.1459 15.9778 10.4339C16.8721 11.3504 17.7665 12.2668 18.6608 13.1833C20.0845 14.6421 21.5082 16.101 22.9355 17.5636C23.2604 17.8965 23.5853 18.2294 23.9102 18.5623C24.1803 18.8391 24.6768 18.8616 24.9432 18.5623C25.2134 18.2631 25.2316 17.7992 24.9432 17.5037Z" fill="#7AC9A1" stroke="#7AC9A1" stroke-width="0.5"/>
<path fill-rule="evenodd" clip-rule="evenodd" d="M33.2626 9.15461C32.7077 9.15461 32.1492 9.15461 31.5944 9.15461C30.2583 9.15461 28.9259 9.15461 27.5898 9.15461C25.9763 9.15461 24.3592 9.15461 22.7457 9.15461C21.3512 9.15461 19.9531 9.15461 18.5586 9.15461C17.8796 9.15461 17.2007 9.13591 16.5253 9.15461C16.5144 9.15461 16.5071 9.15461 16.4961 9.15461C16.1128 9.15461 15.7478 9.49875 15.766 9.90274C15.7843 10.3067 16.0873 10.6509 16.4961 10.6509C17.051 10.6509 17.6095 10.6509 18.1644 10.6509C19.5004 10.6509 20.8329 10.6509 22.1689 10.6509C23.7824 10.6509 25.3996 10.6509 27.0131 10.6509C28.4075 10.6509 29.8056 10.6509 31.2001 10.6509C31.8791 10.6509 32.5581 10.6696 33.2334 10.6509C33.2444 10.6509 33.2517 10.6509 33.2626 10.6509C33.6459 10.6509 34.0109 10.3067 33.9927 9.90274C33.9744 9.49875 33.6715 9.15461 33.2626 9.15461Z" fill="#7AC9A1" stroke="#7AC9A1" stroke-width="0.5"/>
<path fill-rule="evenodd" clip-rule="evenodd" d="M9.94356 14.4963C10.8379 15.4127 11.7323 16.3292 12.6266 17.2456C14.0503 18.7045 15.474 20.1633 16.9013 21.6259C17.2262 21.9589 17.5511 22.2918 17.876 22.6247C17.876 22.2731 17.876 21.9177 17.876 21.5661C16.9816 22.4825 16.0873 23.399 15.1929 24.3155C13.7692 25.7743 12.3456 27.2332 10.9182 28.6958C10.5933 29.0287 10.2684 29.3616 9.94356 29.6945C9.67343 29.9713 9.65152 30.4801 9.94356 30.7531C10.2356 31.0262 10.6882 31.0486 10.9766 30.7531C11.871 29.8367 12.7654 28.9202 13.6597 28.0037C15.0834 26.5449 16.5071 25.086 17.9344 23.6234C18.2593 23.2905 18.5842 22.9576 18.909 22.6247C19.1865 22.3404 19.1901 21.8541 18.909 21.5661C18.0147 20.6496 17.1203 19.7332 16.226 18.8167C14.8023 17.3579 13.3786 15.899 11.9513 14.4364C11.6264 14.1035 11.3015 13.7706 10.9766 13.4377C10.7065 13.1609 10.21 13.1384 9.94356 13.4377C9.67708 13.7369 9.65517 14.2008 9.94356 14.4963Z" fill="#7AC9A1" stroke="#7AC9A1" stroke-width="0.5"/>
<path fill-rule="evenodd" clip-rule="evenodd" d="M1.7374 22.8454C2.29227 22.8454 2.84713 22.8454 3.39835 22.8454C4.72346 22.8454 6.04857 22.8454 7.37003 22.8454C8.97258 22.8454 10.5715 22.8454 12.174 22.8454C13.5648 22.8454 14.952 22.8454 16.3428 22.8454C17.0145 22.8454 17.6898 22.8641 18.3615 22.8454C18.3725 22.8454 18.3798 22.8454 18.3907 22.8454C18.774 22.8454 19.1391 22.5013 19.1208 22.0973C19.1026 21.6933 18.7996 21.3491 18.3907 21.3491C17.8358 21.3491 17.281 21.3491 16.7298 21.3491C15.4047 21.3491 14.0795 21.3491 12.7581 21.3491C11.1555 21.3491 9.55665 21.3491 7.9541 21.3491C6.56328 21.3491 5.17612 21.3491 3.7853 21.3491C3.11362 21.3491 2.43828 21.3304 1.7666 21.3491C1.75565 21.3491 1.74835 21.3491 1.7374 21.3491C1.3541 21.3491 0.989057 21.6933 1.00731 22.0973C1.02556 22.5013 1.32855 22.8454 1.7374 22.8454Z" fill="#7AC9A1" stroke="#7AC9A1" stroke-width="0.5"/>
</svg>
