<?xml version="1.0" encoding="UTF-8" standalone="no"?>
<svg
   xmlns:dc="http://purl.org/dc/elements/1.1/"
   xmlns:cc="http://creativecommons.org/ns#"
   xmlns:rdf="http://www.w3.org/1999/02/22-rdf-syntax-ns#"
   xmlns:svg="http://www.w3.org/2000/svg"
   xmlns="http://www.w3.org/2000/svg"
   id="svg4"
   version="1.1"
   fill="none"
   viewBox="0 0 33 31"
   height="31"
   width="33">
  <metadata
     id="metadata10">
    <rdf:RDF>
      <cc:Work
         rdf:about="">
        <dc:format>image/svg+xml</dc:format>
        <dc:type
           rdf:resource="http://purl.org/dc/dcmitype/StillImage" />
        <dc:title></dc:title>
      </cc:Work>
    </rdf:RDF>
  </metadata>
  <defs
     id="defs8" />
  <path
     style="stroke:#000000;stroke-opacity:1"
     id="path2"
     stroke="#8A6E3A"
     d="M27.7883 30H5.21171C5.21031 30 5.21031 30 5.20891 30C2.88419 30 1 28.0461 1 25.6354C1 24.8323 1.20904 24.0787 1.57522 23.4327L12.8523 3.18668C13.593 1.87001 14.9483 1 16.5 1C18.0517 1 19.407 1.87001 20.1365 3.16631L31.436 23.4531C31.791 24.0787 32 24.8323 32 25.6354C32 28.0461 30.1158 30 27.7911 30C27.7897 30 27.7897 30 27.7883 30Z" />
  <path
     id="path2-5"
     d="m 16.510001,18.75 c -0.16,0 -0.3,-0.06 -0.42,-0.18 -0.120002,-0.119999 -0.186669,-0.28 -0.200002,-0.48 l -0.6,-8.4799995 c -0.04,-0.37333 0.05333,-0.67333 0.28,-0.9 0.24,-0.240001 0.553332,-0.360001 0.940002,-0.360001 0.37333,0 0.67333,0.12 0.9,0.360001 0.24,0.22667 0.34,0.52667 0.3,0.9 l -0.6,8.4799995 c -0.01334,0.2133 -0.07334,0.38 -0.18,0.5 -0.10667,0.1067 -0.24667,0.16 -0.42,0.16 z m 0,3.9 c -0.36,0 -0.666669,-0.12 -0.920002,-0.36 -0.24,-0.24 -0.36,-0.5467 -0.36,-0.92 0,-0.3733 0.12,-0.68 0.36,-0.919999 C 15.843332,20.1967 16.150001,20.07 16.510001,20.07 c 0.36,0 0.66,0.1267 0.9,0.380001 0.24,0.239999 0.36,0.546699 0.36,0.919999 0,0.3733 -0.12,0.68 -0.36,0.92 -0.24,0.24 -0.54,0.36 -0.9,0.36 z"
     style="fill:#000000;fill-opacity:1" />
</svg>
