<svg width="14" height="14" viewBox="0 0 14 14" fill="none" xmlns="http://www.w3.org/2000/svg">
<path d="M0.20333 0.963373C0.474437 0.690007 0.913989 0.690007 1.1851 0.963373L11.5983 11.4633C11.8694 11.7367 11.8694 12.1799 11.5983 12.4533C11.3272 12.7267 10.8876 12.7267 10.6165 12.4533L0.20333 1.95332C-0.0677768 1.67995 -0.0677768 1.23674 0.20333 0.963373Z" fill="white"/>
<path d="M0.418261 3.63429C0.226267 3.95219 0.115674 4.32557 0.115674 4.725V9.85832C0.115674 11.0181 1.0481 11.9583 2.19831 11.9583H8.65411L0.447396 3.66596C0.437225 3.65568 0.427513 3.64511 0.418261 3.63429Z" fill="white"/>
<path d="M9.95036 4.725V8.33212L4.30219 2.625H7.86772C9.01793 2.625 9.95036 3.5652 9.95036 4.725Z" fill="white"/>
<path d="M12.8721 4.11817L11.1074 5.54167V9.04166L12.8721 10.4652C13.3266 10.8318 14 10.5055 14 9.91855V4.66478C14 4.07782 13.3266 3.7515 12.8721 4.11817Z" fill="white"/>
</svg>
