<svg xmlns="http://www.w3.org/2000/svg" width="16" height="16" fill="none"><path fill="currentColor" d="M7.984 15.433c-1.766 0-3.281-.586-4.547-1.76-1.265-1.172-1.966-2.623-2.102-4.352a.486.486 0 0 1 .14-.388.524.524 0 0 1 .397-.167c.148 0 .275.052.38.157.105.105.17.238.194.398.136 1.42.729 2.609 1.778 3.566 1.05.957 2.303 1.435 3.76 1.435 1.543 0 2.855-.54 3.936-1.62 1.08-1.08 1.62-2.393 1.62-3.936 0-1.544-.524-2.855-1.574-3.936-1.05-1.08-2.346-1.62-3.89-1.62H7.67l.963.963a.533.533 0 0 1 0 .778.533.533 0 0 1-.389.166.533.533 0 0 1-.389-.166L5.91 3.006a.564.564 0 0 1-.13-.185.544.544 0 0 1-.037-.204c0-.074.012-.142.037-.204a.564.564 0 0 1 .13-.185L7.873.265a.503.503 0 0 1 .37-.148c.149 0 .278.05.39.148.098.111.148.24.148.389 0 .148-.05.271-.149.37L7.558 2.098h.426a6.55 6.55 0 0 1 2.602.519 6.681 6.681 0 0 1 2.12 1.426 6.681 6.681 0 0 1 1.427 2.12 6.55 6.55 0 0 1 .519 2.603 6.55 6.55 0 0 1-.519 2.602 6.681 6.681 0 0 1-1.426 2.12 6.681 6.681 0 0 1-2.12 1.427 6.55 6.55 0 0 1-2.603.518Z"/></svg>