<svg width="22" height="24" viewBox="0 0 22 24" fill="none" xmlns="http://www.w3.org/2000/svg">
<mask id="mask0" mask-type="alpha" maskUnits="userSpaceOnUse" x="0" y="0" width="22" height="24">
<rect width="22" height="6" fill="white"/>
<rect y="17" width="22" height="7" fill="white"/>
</mask>
<g mask="url(#mask0)">
<path d="M11.3349 22.7219C11.1216 22.8327 10.8784 22.8327 10.6651 22.7219C9.60003 22.1689 7.63848 21.0401 5.95701 19.4808C4.25423 17.9018 3 16.0333 3 14V3.60434C3 3.13564 3.32553 2.72983 3.78307 2.62816L10.7831 1.0726C10.9259 1.04085 11.0741 1.04085 11.2169 1.0726L18.2169 2.62816C18.6745 2.72983 19 3.13564 19 3.60434V14C19 16.0333 17.7458 17.9018 16.043 19.4808C14.3615 21.0401 12.4 22.1689 11.3349 22.7219Z" stroke="#2E2F32" stroke-width="2"/>
</g>
<path fill-rule="evenodd" clip-rule="evenodd" d="M2 8C0.895431 8 0 8.89543 0 10V13C0 14.1046 0.89543 15 2 15H20C21.1046 15 22 14.1046 22 13V10C22 8.89543 21.1046 8 20 8H2ZM4.25 9.5C3.83579 9.5 3.5 9.83579 3.5 10.25C3.5 10.6642 3.83579 11 4.25 11H6.75C7.16421 11 7.5 10.6642 7.5 10.25C7.5 9.83579 7.16421 9.5 6.75 9.5H4.25ZM8.5 10.25C8.5 9.83579 8.83579 9.5 9.25 9.5H9.75C10.1642 9.5 10.5 9.83579 10.5 10.25C10.5 10.6642 10.1642 11 9.75 11H9.25C8.83579 11 8.5 10.6642 8.5 10.25ZM12.25 9.5C11.8358 9.5 11.5 9.83579 11.5 10.25C11.5 10.6642 11.8358 11 12.25 11H14.75C15.1642 11 15.5 10.6642 15.5 10.25C15.5 9.83579 15.1642 9.5 14.75 9.5H12.25ZM16.5 10.25C16.5 9.83579 16.8358 9.5 17.25 9.5H17.75C18.1642 9.5 18.5 9.83579 18.5 10.25C18.5 10.6642 18.1642 11 17.75 11H17.25C16.8358 11 16.5 10.6642 16.5 10.25ZM4.25 12C3.83579 12 3.5 12.3358 3.5 12.75C3.5 13.1642 3.83579 13.5 4.25 13.5H4.75C5.16421 13.5 5.5 13.1642 5.5 12.75C5.5 12.3358 5.16421 12 4.75 12H4.25ZM6.5 12.75C6.5 12.3358 6.83579 12 7.25 12H9.75C10.1642 12 10.5 12.3358 10.5 12.75C10.5 13.1642 10.1642 13.5 9.75 13.5H7.25C6.83579 13.5 6.5 13.1642 6.5 12.75ZM12.25 12C11.8358 12 11.5 12.3358 11.5 12.75C11.5 13.1642 11.8358 13.5 12.25 13.5H12.75C13.1642 13.5 13.5 13.1642 13.5 12.75C13.5 12.3358 13.1642 12 12.75 12H12.25Z" fill="#2E2F32"/>
</svg>
