<svg width="14" height="14" viewBox="0 0 14 14" fill="none" xmlns="http://www.w3.org/2000/svg">
<path d="M13.1933 1.74714L10.1333 4.80714L11.1933 5.86714C11.6133 6.28714 11.3133 7.00714 10.72 7.00714H7.66665C7.29998 7.00714 6.99998 6.70714 6.99998 6.34047V3.2738C6.99998 2.68047 7.71998 2.38047 8.13998 2.80047L9.19998 3.86047L12.26 0.800469C12.52 0.540469 12.94 0.540469 13.2 0.800469C13.4533 1.06714 13.4533 1.48714 13.1933 1.74714ZM1.74665 13.1938L4.80665 10.1338L5.86665 11.1938C6.28665 11.6138 7.00665 11.3138 7.00665 10.7205V7.66714C7.00665 7.30047 6.70665 7.00047 6.33998 7.00047H3.27331C2.67998 7.00047 2.37998 7.72047 2.79998 8.14047L3.85998 9.20047L0.79998 12.2605C0.53998 12.5205 0.53998 12.9405 0.79998 13.2005C1.06665 13.4538 1.48665 13.4538 1.74665 13.1938Z" fill="#737D8C"/>
</svg>
