<svg width="48" height="48" viewBox="0 0 48 48" fill="none" xmlns="http://www.w3.org/2000/svg">
<path fill-rule="evenodd" clip-rule="evenodd" d="M24 48C37.2548 48 48 37.2548 48 24C48 10.7452 37.2548 0 24 0C10.7452 0 0 10.7452 0 24C0 37.2548 10.7452 48 24 48Z" fill="currentColor"/>
<path fill-rule="evenodd" clip-rule="evenodd" d="M22.5803 13.0273C22.3041 13.0273 22.0803 13.2512 22.0803 13.5273V34.9702H26.4689V13.5273C26.4689 13.2512 26.245 13.0273 25.9689 13.0273H22.5803ZM14.4001 21.2075C14.4001 20.9313 14.624 20.7075 14.9001 20.7075H18.2887C18.5649 20.7075 18.7887 20.9313 18.7887 21.2075V34.9703H14.4001V21.2075ZM29.7601 25.596C29.7601 25.3198 29.9839 25.096 30.2601 25.096H33.6487C33.9248 25.096 34.1487 25.3198 34.1487 25.596V34.9703H29.7601V25.596Z" fill="white"/>
</svg>
