<svg viewBox="0 0 18 18" xmlns="http://www.w3.org/2000/svg" color="currentColor">
  <path d="M 1 0.25 A 0.75 0.75 0 0 0 0.46875 0.46875 A 0.75 0.75 0 0 0 0.46875 1.53125 L 3.828125 4.890625 C 2.9848509 5.5457905 2.288699 6.2838194 1.7480469 6.9511719 C 0.76562987 8.1638319 0.74497875 9.8494956 1.7148438 11.072266 C 3.0906437 12.806866 5.51954 15 9 15 C 10.504166 15 11.812822 14.591743 12.923828 13.986328 L 16.46875 17.53125 A 0.75 0.75 0 0 0 17.53125 17.53125 A 0.75 0.75 0 0 0 17.53125 16.46875 L 1.53125 0.46875 A 0.75 0.75 0 0 0 1 0.25 z M 9 3 C 8.13025 3 7.3213319 3.1461381 6.5761719 3.3925781 L 8.2539062 5.0703125 C 8.4956862 5.0246825 8.74495 5 9 5 C 11.2091 5 13 6.79086 13 9 C 13 9.25505 12.975288 9.5043138 12.929688 9.7460938 L 15.332031 12.146484 C 15.691931 11.783584 16.009656 11.419566 16.285156 11.072266 C 17.255056 9.8494956 17.234353 8.1638319 16.251953 6.9511719 C 14.844053 5.2132519 12.3858 3 9 3 z M 5.6894531 6.7519531 L 7.15625 8.21875 C 7.0545605 8.4585131 7 8.7231609 7 9 C 7 10.10457 7.89543 11 9 11 C 9.2768391 11 9.5414869 10.94543 9.78125 10.84375 L 11.248047 12.310547 C 10.60758 12.746321 9.8331336 13 9 13 C 6.79086 13 5 11.2091 5 9 C 5 8.1668664 5.2536591 7.3924794 5.6894531 6.7519531 z " />
</svg>
