<svg width="16" height="16" viewBox="0 0 16 16" fill="none" xmlns="http://www.w3.org/2000/svg">
<path fill-rule="evenodd" clip-rule="evenodd" d="M7.91026 3.94231C8.29485 3.94231 8.65371 3.83217 8.95703 3.64171L10.9825 5.4882H4.91519L6.80195 3.60144C7.11776 3.81656 7.49933 3.94231 7.91026 3.94231ZM6.13024 2.81896C6.0077 2.56215 5.93911 2.27466 5.93911 1.97115C5.93911 0.882516 6.82162 0 7.91026 0C8.9989 0 9.88142 0.882516 9.88142 1.97115C9.88142 2.28446 9.80832 2.5807 9.67824 2.84374L12.5791 5.4882H14.0148C14.8066 5.4882 15.4484 6.13003 15.4484 6.92177V12.5664C15.4484 13.3582 14.8066 14 14.0148 14H1.9863C1.19456 14 0.552734 13.3582 0.552734 12.5664V6.92177C0.552734 6.13003 1.19456 5.4882 1.9863 5.4882H3.461L6.13024 2.81896ZM9.74816 10.7038L8.55366 9.50921L9.74816 8.31463C9.92583 8.13689 9.92583 7.84897 9.74816 7.67122C9.65938 7.58245 9.54299 7.53802 9.42666 7.53802C9.31013 7.53802 9.19373 7.58238 9.10502 7.67122L7.91027 8.86593L6.7156 7.67123C6.62684 7.58246 6.51044 7.53804 6.394 7.53804C6.2776 7.53804 6.16128 7.58239 6.07243 7.67123C5.89476 7.8489 5.89476 8.13683 6.07243 8.31464L7.26689 9.50922L6.07236 10.7038C5.89469 10.8815 5.89469 11.1695 6.07236 11.3472C6.25001 11.5247 6.53782 11.5247 6.71553 11.3472L7.91026 10.1525L9.10489 11.3472C9.28263 11.5247 9.57048 11.5247 9.74809 11.3472C9.92583 11.1695 9.92583 10.8815 9.74816 10.7038ZM7.91097 3.04704C8.50478 3.04704 8.98615 2.56567 8.98615 1.97186C8.98615 1.37806 8.50478 0.89669 7.91097 0.89669C7.31717 0.89669 6.8358 1.37806 6.8358 1.97186C6.8358 2.56567 7.31717 3.04704 7.91097 3.04704Z" fill="#17191C"/>
</svg>
